<svg class="border shadow-md" viewBox="0 0 1351.68 675.84" xmlns="http://www.w3.org/2000/svg" preserveAspectRatio="none" style="width: 1351.68px; height: 675.84px;"><rect class="bg" id="bg" x="0" y="0" width="1351.68" height="675.84" fill="#ffffff"/><g transform="rotate(0 675.84 337.92)"><path id="-1" d="M -517.23 -105.17 S -298.00 -172.75&#10;            0.00 -105.17 248.61 -223.17&#10;            517.23 -105.17 765.84 -214.17&#10;            1034.45 -105.17 1283.07 -172.75&#10;            1551.68 -105.17 1800.29 -203.17&#10;            2068.91 -105.17 h 110 V 875.84 H -517.23 Z" fill="#00897B"/><path id="0" d="M -517.23 30.00 S -268.61 -80.00&#10;            0.00 30.00 248.61 -56.00&#10;            517.23 30.00 617.45 -37.58&#10;            1034.45 30.00 1283.07 -37.58&#10;            1551.68 30.00 1800.29 -37.58&#10;            2068.91 30.00 h 110 V 875.84 H -517.23 Z" fill="#008072"/><path id="1" d="M -517.23 165.17 S -365.00 97.58&#10;            0.00 165.17 248.61 97.58&#10;            517.23 165.17 627.45 97.58&#10;            1034.45 165.17 1283.07 51.17&#10;            1551.68 165.17 1800.29 69.17&#10;            2068.91 165.17 h 110 V 875.84 H -517.23 Z" fill="#007769"/><path id="2" d="M -517.23 300.34 S -268.61 199.34&#10;            0.00 300.34 248.61 202.34&#10;            517.23 300.34 765.84 232.75&#10;            1034.45 300.34 1283.07 187.34&#10;            1551.68 300.34 1800.29 232.75&#10;            2068.91 300.34 h 110 V 875.84 H -517.23 Z" fill="#006e60"/><path id="3" d="M -517.23 435.50 S -268.61 367.92&#10;            0.00 435.50 146.23 367.92&#10;            517.23 435.50 620.45 323.50&#10;            1034.45 435.50 1114.68 325.50&#10;            1551.68 435.50 1800.29 367.92&#10;            2068.91 435.50 h 110 V 875.84 H -517.23 Z" fill="#006557"/><path id="4" d="M -517.23 570.67 S -268.61 465.67&#10;            0.00 570.67 248.61 503.09&#10;            517.23 570.67 765.84 503.09&#10;            1034.45 570.67 1283.07 477.67&#10;            1551.68 570.67 1800.29 503.09&#10;            2068.91 570.67 h 110 V 875.84 H -517.23 Z" fill="#005c4e"/></g></svg>